<svg width="152" height="79" viewBox="0 0 152 79" fill="none" xmlns="http://www.w3.org/2000/svg">
<path d="M3.456 61.001V23.129H10.032V44.249L9.984 43.433C10.72 42.121 11.76 41.065 13.104 40.265C14.448 39.433 16.096 39.017 18.048 39.017C20.032 39.017 21.68 39.609 22.992 40.793C24.336 41.945 25.024 43.449 25.056 45.305V61.001H18.336V47.801C18.304 46.873 18.048 46.137 17.568 45.593C17.12 45.017 16.352 44.729 15.264 44.729C14.24 44.729 13.344 45.065 12.576 45.737C11.808 46.409 11.216 47.321 10.8 48.473C10.384 49.625 10.176 50.953 10.176 52.457V61.001H3.456ZM40.788 61.577C38.836 61.577 37.06 61.193 35.46 60.425C33.892 59.625 32.644 58.409 31.716 56.777C30.788 55.145 30.324 53.065 30.324 50.537C30.324 48.169 30.804 46.121 31.764 44.393C32.724 42.665 33.988 41.337 35.556 40.409C37.124 39.449 38.788 38.969 40.548 38.969C42.628 38.969 44.196 39.321 45.252 40.025C46.34 40.697 47.236 41.449 47.94 42.281L47.652 43.097L48.276 40.025H54.516V61.001H47.796V56.441L48.324 57.881C48.26 57.881 48.068 58.073 47.748 58.457C47.428 58.809 46.948 59.241 46.308 59.753C45.7 60.233 44.932 60.649 44.004 61.001C43.108 61.385 42.036 61.577 40.788 61.577ZM42.708 56.105C43.508 56.105 44.228 55.993 44.868 55.769C45.508 55.513 46.068 55.161 46.548 54.713C47.028 54.233 47.444 53.641 47.796 52.937V47.801C47.54 47.097 47.156 46.505 46.644 46.025C46.132 45.513 45.524 45.129 44.82 44.873C44.116 44.585 43.332 44.441 42.468 44.441C41.508 44.441 40.612 44.697 39.78 45.209C38.98 45.689 38.34 46.361 37.86 47.225C37.38 48.089 37.14 49.081 37.14 50.201C37.14 51.321 37.396 52.329 37.908 53.225C38.42 54.121 39.092 54.825 39.924 55.337C40.788 55.849 41.716 56.105 42.708 56.105ZM75.2164 61.577C73.4564 61.577 71.9684 61.289 70.7524 60.713C69.5684 60.105 68.5284 59.321 67.6324 58.361L68.1604 56.921V61.001H61.4404V23.129H68.1124V43.625V41.465C68.9444 40.761 70.0484 40.169 71.4244 39.689C72.8004 39.209 74.3684 38.969 76.1284 38.969C77.9524 38.969 79.6164 39.401 81.1204 40.265C82.6244 41.129 83.8244 42.393 84.7204 44.057C85.6484 45.689 86.1124 47.689 86.1124 50.057C86.1124 52.425 85.6004 54.473 84.5764 56.201C83.5844 57.929 82.2564 59.257 80.5924 60.185C78.9284 61.113 77.1364 61.577 75.2164 61.577ZM73.7284 55.913C74.7204 55.913 75.6324 55.657 76.4644 55.145C77.3284 54.633 78.0164 53.929 78.5284 53.033C79.0404 52.137 79.2964 51.129 79.2964 50.009C79.2964 48.889 79.0404 47.897 78.5284 47.033C78.0164 46.169 77.3284 45.497 76.4644 45.017C75.6324 44.505 74.7204 44.249 73.7284 44.249C72.8644 44.249 72.0484 44.393 71.2804 44.681C70.5444 44.937 69.9044 45.321 69.3604 45.833C68.8484 46.313 68.4484 46.905 68.1604 47.609V52.745C68.5444 53.449 68.9924 54.041 69.5044 54.521C70.0484 54.969 70.6724 55.321 71.3764 55.577C72.0804 55.801 72.8644 55.913 73.7284 55.913ZM91.3935 40.025H98.1135V61.001H91.3935V40.025ZM91.2495 32.585C91.2495 31.593 91.6335 30.777 92.4015 30.137C93.2015 29.497 94.0495 29.177 94.9455 29.177C95.8415 29.177 96.6575 29.497 97.3935 30.137C98.1615 30.777 98.5455 31.593 98.5455 32.585C98.5455 33.577 98.1615 34.393 97.3935 35.033C96.6575 35.641 95.8415 35.945 94.9455 35.945C94.0495 35.945 93.2015 35.641 92.4015 35.033C91.6335 34.393 91.2495 33.577 91.2495 32.585ZM107.002 30.809H113.722V39.929H118.81V45.161H113.722V61.001H107.002V45.161H103.738V39.929H107.002V30.809ZM124.885 34.169L121.429 32.825C122.133 32.185 122.709 31.257 123.157 30.041C123.605 28.825 123.717 27.657 123.493 26.537L128.629 26.201C128.821 27.097 128.741 28.089 128.389 29.177C128.069 30.265 127.589 31.257 126.949 32.153C126.341 33.049 125.653 33.721 124.885 34.169ZM140.21 61.433C138.482 61.433 136.866 61.129 135.362 60.521C133.89 59.913 132.642 59.065 131.618 57.977L134.402 54.281C135.426 55.209 136.37 55.881 137.234 56.297C138.13 56.681 138.93 56.873 139.634 56.873C140.178 56.873 140.658 56.825 141.074 56.729C141.522 56.601 141.874 56.425 142.13 56.201C142.386 55.945 142.514 55.625 142.514 55.241C142.514 54.697 142.29 54.265 141.842 53.945C141.426 53.625 140.882 53.369 140.21 53.177C139.538 52.953 138.818 52.729 138.05 52.505C136.13 51.897 134.738 51.017 133.874 49.865C133.042 48.681 132.626 47.401 132.626 46.025C132.626 44.969 132.898 43.913 133.442 42.857C134.018 41.769 134.914 40.873 136.13 40.169C137.378 39.433 138.978 39.065 140.93 39.065C142.69 39.065 144.178 39.241 145.394 39.593C146.61 39.945 147.762 40.521 148.85 41.321L146.306 45.257C145.698 44.777 145.01 44.377 144.242 44.057C143.506 43.705 142.818 43.513 142.178 43.481C141.602 43.449 141.106 43.513 140.69 43.673C140.306 43.833 140.002 44.041 139.778 44.297C139.554 44.553 139.442 44.825 139.442 45.113C139.41 45.721 139.634 46.201 140.114 46.553C140.626 46.905 141.266 47.177 142.034 47.369C142.802 47.561 143.554 47.785 144.29 48.041C145.314 48.361 146.194 48.793 146.93 49.337C147.666 49.881 148.226 50.537 148.61 51.305C149.026 52.041 149.234 52.937 149.234 53.993C149.234 55.273 148.898 56.489 148.226 57.641C147.586 58.761 146.594 59.673 145.25 60.377C143.938 61.081 142.258 61.433 140.21 61.433Z" fill="white"/>
<rect x="2.5" y="1.4986" width="15" height="15" rx="3.5" fill="#18181B" stroke="#27272A"/>
<rect x="22.5" y="1.4986" width="15" height="15" rx="3.5" fill="#4C1D95" stroke="#6D28D9"/>
<rect x="42.5" y="1.4986" width="15" height="15" rx="3.5" fill="#5B21B6" stroke="#7C3AED"/>
<rect x="62.5" y="1.4986" width="15" height="15" rx="3.5" fill="#6D28D9" stroke="#8B5CF6"/>
<rect x="82.5" y="1.4986" width="15" height="15" rx="3.5" fill="#7C3AED" stroke="#A78BFA"/>
<rect x="102.5" y="1.4986" width="15" height="15" rx="3.5" fill="#8B5CF6" stroke="#C4B5FD"/>
</svg>
